<?xml version="1.0" encoding="UTF-8" standalone="no"?>
<!DOCTYPE svg PUBLIC "-//W3C//DTD SVG 1.1//EN" "http://www.w3.org/Graphics/SVG/1.1/DTD/svg11.dtd">
<svg width="100%" height="100%" viewBox="0 0 283 141" version="1.1" xmlns="http://www.w3.org/2000/svg" xmlns:xlink="http://www.w3.org/1999/xlink" xml:space="preserve" xmlns:serif="http://www.serif.com/" style="fill-rule:evenodd;clip-rule:evenodd;stroke-linejoin:round;stroke-miterlimit:2;">
    <g id="Layer_1">
        <path d="M239.757,36.702L239.768,36.831C239.768,36.831 233.884,41.721 224.662,42.88C219.144,43.38 213.496,42.516 208.607,39.802C206.576,41.376 207.432,40.637 205.991,41.959C203.628,44.252 201.794,47.003 200.489,50.213C199.184,53.423 198.531,57.003 198.531,60.953C198.531,64.904 199.148,68.167 200.383,70.742C201.618,73.317 203.24,75.45 205.25,77.143C207.261,78.836 209.554,80.194 212.129,81.217C214.704,82.24 217.331,83.175 220.012,84.022C222.269,84.798 224.192,85.503 225.779,86.138C227.366,86.773 228.654,87.46 229.641,88.201C230.629,88.942 231.335,89.754 231.758,90.635C232.181,91.517 232.393,92.558 232.393,93.757C232.393,95.732 231.564,97.496 229.906,99.048C228.248,100.6 225.726,101.376 222.34,101.376C219.377,101.376 216.379,100.706 213.346,99.365C210.312,98.025 207.243,95.979 204.139,93.228L195.251,109.947C203.857,115.944 213.204,118.942 223.292,118.942C228.16,118.942 232.516,118.289 236.361,116.984C240.206,115.679 243.451,113.844 246.096,111.481C248.741,109.118 250.752,106.278 252.128,102.963C253.503,99.648 254.191,95.944 254.191,91.852C254.191,85.785 252.621,80.865 249.482,77.091C246.343,73.316 241.387,70.3 234.615,68.043C232.922,67.479 231.211,66.95 229.483,66.456C227.754,65.962 226.202,65.38 224.827,64.71C223.451,64.04 222.34,63.246 221.493,62.329C220.647,61.412 220.224,60.248 220.224,58.837C220.224,56.791 221.07,55.133 222.763,53.864C224.456,52.594 226.643,51.959 229.324,51.959C231.441,51.959 233.628,52.4 235.885,53.282C238.142,54.163 240.4,55.521 242.657,57.355L250.911,41.165C247.324,39.38 243.67,37.657 239.757,36.702ZM237.204,29.328L236.93,29.328L209.177,32.493L209.543,37.8C209.543,37.8 215.848,41.864 224.087,40.991C232.326,40.117 237.655,35.861 237.655,35.861L237.204,29.328ZM245.922,19.61C245.923,19.61 246.252,20.17 246.252,20.17C246.252,20.17 248.778,23.748 249.911,26.446C250.835,28.644 250.962,33.538 250.962,33.538L258.235,33.543C258.235,33.543 258.411,27.305 255.605,23.61C253.461,20.786 245.923,19.61 245.922,19.61ZM260,3.229L206.028,9.785L191.359,33.155L245.331,26.598L246.981,23.97C246.502,23.144 246.757,23.573 246.213,22.685C245.741,21.933 245.235,21.182 244.728,20.467C244.423,20.039 244.559,20.227 244.32,19.9C244.057,20.032 244.237,19.958 243.754,20.04C242.558,20.123 241.52,19.22 241.438,18.023C241.454,17.512 241.404,17.722 241.521,17.382L241.458,17.359L240.606,17.081L239.489,16.791L238.385,16.596L237.289,16.49L236.196,16.461L235.108,16.484L234.006,16.581L232.881,16.745L231.739,16.941L230.56,17.192L229.349,17.463L228.088,17.775L226.786,18.083L225.425,18.413L224.725,18.573C224.428,18.663 224.282,18.442 224.398,18.079C224.515,17.716 224.85,17.349 225.146,17.259L225.884,16.985L227.304,16.49L228.666,16.045L229.966,15.685L231.222,15.376L232.43,15.149L233.605,14.983L234.74,14.91L235.851,14.906L236.943,14.976L238.007,15.153L239.056,15.421L240.099,15.781L241.142,16.239L241.866,16.623C242.231,16.04 242.811,15.817 243.455,15.707C244.652,15.624 245.689,16.527 245.772,17.724L245.761,18.067L246.072,18.133C247.299,18.403 248.527,18.737 249.678,19.138L249.947,19.244L260,3.229ZM84.481,29.83L91.986,34.908C91.472,36.13 91.653,35.463 91.506,36.924C91.629,38.148 91.764,39.562 92.788,40.419L78.216,79.471L64.937,44.12C65.614,43.835 66.358,43.674 66.968,43.265C68.582,42.183 69.405,40.427 69.481,38.539C69.332,37.056 69.515,37.745 68.975,36.462L76.774,30.061C77.892,31.179 78.966,31.531 80.512,31.586C81.999,31.436 83.533,31.108 84.481,29.83ZM35.831,8.746L35.208,8.749L34.392,8.798C31.985,9.769 32.914,9.161 31.445,10.353C30.502,11.499 29.642,12.806 29.866,14.371L21.186,16.266C20.444,14.428 20.924,15.198 19.861,13.888C18.562,12.873 17.275,12.147 15.562,12.257L14.747,12.305C12.339,13.277 13.269,12.669 11.799,13.86C9.566,16.079 9.553,19.688 11.772,21.922C13.99,24.155 17.599,24.168 19.833,21.949C20.639,20.97 21.545,19.838 21.41,18.474L30.293,16.534C30.834,17.874 30.467,17.243 31.417,18.414C31.715,18.658 31.97,18.965 32.309,19.147C33.614,19.848 35.304,20.516 36.8,19.888L40.574,29.765C38.599,30.596 37.614,32.675 37.521,34.719C37.757,37.064 38.811,39.18 41.199,39.936L28.164,116.719L48.799,116.719L55.677,70.794L73.56,116.719L81.814,116.719L100.649,70.794L107.528,116.719L128.162,116.719L114.617,36.933L102.905,36.933L102.906,36.924C102.906,33.776 100.354,31.224 97.206,31.224C95.679,31.377 94.136,31.733 93.169,33.046L85.695,27.989C86.246,26.679 86.062,27.378 86.212,25.885C86.212,22.737 83.66,20.185 80.512,20.185C77.364,20.185 74.812,22.737 74.812,25.885C74.973,27.486 74.779,26.679 75.457,28.291L67.762,34.605C66.433,33.276 65.723,32.934 63.781,32.838C61.197,33.099 59.164,34.342 58.389,36.933L48.357,36.933C48.955,35.513 48.767,36.251 48.921,34.719C48.921,31.571 46.369,29.019 43.221,29.019L42.67,29.074L38.814,18.981L39.479,18.442C41.712,16.223 41.725,12.614 39.506,10.38C38.393,9.586 37.252,8.81 35.831,8.746ZM162.024,36.933L141.283,36.933L141.283,116.719L186.891,116.719L186.891,99.154L162.024,99.154L162.024,36.933ZM173.275,37.431C171.206,38.102 170.635,38.555 170.264,40.827C169.637,47.137 182.908,48.986 184.119,56.702L184.217,57.456L184.272,58.175L184.286,58.861L184.26,59.516L184.197,60.143L184.099,60.742L183.967,61.316L183.804,61.869L183.61,62.402L183.386,62.917L183.134,63.417L182.854,63.903L182.547,64.377L182.214,64.842L181.857,65.296L181.475,65.743L181.071,66.184L180.419,66.839L179.487,67.694L179.064,68.052L179.341,67.761C180.859,63.795 182.381,58.491 179.551,54.697C178.978,53.929 178.047,53.134 177.137,52.835C176.454,52.61 175.711,52.64 174.999,52.543C172.718,53.252 171.962,53.726 171.504,56.247C171.298,59.267 173.671,59.064 175.502,60.611C177.234,62.075 177.775,64.172 177.865,66.35C177.917,67.623 177.869,68.041 177.792,69.1L177.453,69.373L176.372,70.222L175.265,71.09L174.147,71.986L173.032,72.922L171.933,73.909L171.308,74.515C172.665,71.297 175.314,68.455 175.453,64.835C175.243,63.45 174.502,62.644 173.082,62.444C171.424,62.507 169.868,62.863 169.213,64.592C168.962,65.598 168.804,66.083 168.761,67.25C168.641,70.477 169.702,73.652 169.199,76.872L169.102,76.993L168.638,77.622L168.195,78.275L167.774,78.955L167.378,79.662L167.008,80.397L166.666,81.161L166.356,81.956L166.078,82.781L165.834,83.639L165.627,84.53L165.458,85.454L165.328,86.413L165.24,87.408L165.195,88.438L165.194,89.506L165.211,90.066C165.23,90.675 165.738,91.153 166.347,91.134C166.955,91.115 167.433,90.606 167.414,89.997L167.398,89.506L167.397,88.533L167.436,87.6L167.513,86.706L167.627,85.849L167.775,85.027L167.956,84.238L168.168,83.482L168.41,82.756L168.681,82.057L168.978,81.385L169.113,81.115C169.91,80.922 169.695,80.954 171.33,81.276C173.904,81.784 175.989,82.982 178.571,81.713C181.759,80.088 180.715,76.462 177.934,76.531C175.438,76.696 172.948,77.218 170.751,78.47L170.828,78.365L171.261,77.818L171.713,77.288L172.181,76.772L172.659,76.275L173.407,75.549L174.449,74.611L175.527,73.706L176.625,72.824L176.877,72.628C179.66,73.198 182.502,73.333 185.302,72.78C187.257,72.393 189.16,71.654 190.815,70.537C192.736,69.241 196.11,65.643 193.649,63.283C192.831,62.499 191.696,62.263 190.611,62.167C185.781,62.309 184.623,68.357 180.353,69.849L180.978,69.317L181.983,68.392L182.696,67.673L183.154,67.172L183.592,66.656L184.009,66.122L184.402,65.57L184.768,64.997L185.105,64.403L185.411,63.788L185.684,63.149L185.92,62.487L186.118,61.801L186.276,61.091C187.027,58.414 187.499,55.775 187.278,52.976C186.709,45.772 181.108,37.484 173.275,37.431ZM137.089,2.015C132.489,3.564 131.253,9.736 134.251,13.4C135.836,15.335 138.177,16.493 140.537,17.173C141.752,17.508 141.068,17.332 142.593,17.68L142.469,17.698L141.582,17.854L140.712,18.037L139.858,18.246L139.023,18.481L138.207,18.744L137.414,19.033C135.326,19.221 133.239,18.193 131.488,17.191C127.233,14.47 131.102,7.168 125.262,6.153L124.509,6.071C118.291,6.719 120.048,13.711 123.527,16.713C125.907,18.767 129.042,19.707 132.135,19.908C133.269,19.97 134.405,20.016 135.537,19.879L135.165,20.071L134.467,20.474L133.796,20.906L133.698,20.976C131.61,22.051 130.25,22.706 127.848,22.024C124.244,20.852 122.072,17.277 118.327,16.531L117.459,16.652C112.533,18.523 114.862,24.434 118.659,26.17C121.098,27.285 123.892,27.089 126.371,26.213C128.408,25.494 128.753,25.176 130.418,24.142C126.664,27.996 123.755,31.537 124.622,37.199C125.039,41.086 132.35,44.253 134.109,39.437C135.827,34.031 130.237,32.501 131.177,27.403L131.295,27.1L131.563,26.53L131.869,25.983L132.211,25.458L132.589,24.955L133.002,24.473L133.45,24.012L133.932,23.572L134.446,23.154L134.993,22.757L135.571,22.382L136.179,22.029L136.815,21.698L137.479,21.39L138.169,21.104L138.885,20.842L139.623,20.602L140.384,20.387L140.516,20.354C136.763,21.974 132.395,29.925 138.552,31.155C145.768,31.663 140.89,21.571 146.405,19.531L147.095,19.511L147.99,19.508L148.893,19.53L149.796,19.574L151.162,19.685L153.003,19.916L153.535,20.011C151.521,20.515 149.604,21.226 147.894,22.438C144.536,24.534 143.975,30.862 148.359,30.986C153.116,30.835 151.806,21.474 157.133,20.782L157.139,20.783L158.042,21.039L158.938,21.318L159.824,21.619L160.7,21.944L161.435,22.239C159.238,22.761 156.251,23.247 154.658,25.081C152.468,27.604 155.727,30.423 158.336,29.424C161.608,27.897 159.355,25.596 160.862,24.43C162.075,23.613 163.18,23.387 164.615,23.76L164.873,23.9L165.657,24.358L166.421,24.837L167.164,25.337L167.884,25.859L168.579,26.401L169.25,26.965L169.894,27.549L170.511,28.153L171.099,28.778L171.657,29.423L172.191,30.099L172.457,30.46C172.818,30.95 173.508,31.054 173.998,30.693C174.488,30.332 174.593,29.642 174.231,29.151L173.965,28.791L173.387,28.057L172.768,27.338L172.118,26.645L171.439,25.976L170.732,25.333L169.999,24.715L169.241,24.121L168.459,23.553L167.654,23.01L166.83,22.491L165.986,21.997L165.123,21.528L164.245,21.084L163.351,20.664L162.443,20.269L161.522,19.898L160.591,19.552L159.649,19.231L158.698,18.934L157.741,18.662L156.777,18.415L155.513,18.133C150.518,16.343 156.346,6.186 150.182,5.097C145.271,4.62 145.492,9.833 146.999,13.083C147.529,14.228 148.522,15.471 149.48,16.327C150.406,17.154 150.404,17.148 150.983,17.46L149.976,17.377L149.003,17.328L148.043,17.304L147.09,17.306L146.144,17.333L145.847,17.35C144.277,16.559 142.956,15.601 142.154,13.961C140.488,10.552 142.691,6.085 139.742,3.1C138.977,2.359 138.21,1.888 137.089,2.015Z" style="fill:rgb(12,20,143);fill-rule:nonzero;"/>
        <g transform="matrix(28.2177,0,0,28.2177,-1384.65,-3521.43)">
            <g transform="matrix(1.15257,0,0,1,-7.61202,0)">
                <g transform="matrix(0.850529,0,0,0.850529,57.1372,129.707)">
                </g>
                <text x="49.891px" y="129.707px" style="font-family:'CenturyGothic-Bold', 'Century Gothic', sans-serif;font-weight:700;font-size:0.851px;fill:rgb(12,20,143);">PHD RETREAT 2024</text>
            </g>
        </g>
    </g>
</svg>
